<?xml version="1.0" standalone="no"?>
<!DOCTYPE svg PUBLIC "-//W3C//DTD SVG 20010904//EN"
 "http://www.w3.org/TR/2001/REC-SVG-20010904/DTD/svg10.dtd">
<svg version="1.0" xmlns="http://www.w3.org/2000/svg"
 width="300.000000pt" height="300.000000pt" viewBox="0 0 300.000000 300.000000"
 preserveAspectRatio="xMidYMid meet">

<g transform="translate(0.000000,300.000000) scale(0.100000,-0.100000)"
fill="#000000" stroke="none">
<path d="M123 2979 c-43 -13 -90 -62 -103 -109 -7 -26 -9 -479 -8 -1392 3
-1333 3 -1353 23 -1386 11 -18 36 -43 55 -55 l35 -22 738 -3 737 -2 0 575 0
575 -195 0 -195 0 0 230 0 230 194 0 194 0 4 238 c4 226 5 241 31 315 67 193
197 309 396 353 62 14 111 16 277 11 112 -3 207 -8 213 -12 7 -4 11 -75 11
-206 l0 -199 -135 0 c-73 0 -157 -5 -185 -11 -63 -13 -116 -57 -130 -107 -5
-20 -10 -115 -10 -209 l0 -173 220 0 c214 0 220 -1 220 -20 0 -27 -50 -412
-55 -428 -3 -9 -51 -12 -195 -12 l-190 0 0 -575 0 -576 403 3 c393 3 403 3
437 25 19 12 44 37 55 55 20 33 20 51 20 1408 l0 1375 -22 35 c-12 19 -37 44
-55 55 -33 20 -52 20 -1393 22 -813 1 -1373 -2 -1392 -8z"/>
</g>
</svg>
